<svg width="42" height="42" viewBox="0 0 42 42" fill="none" xmlns="http://www.w3.org/2000/svg">
<path d="M9.5625 2.3125H26.3203C26.8506 2.31262 27.3594 2.52347 27.7344 2.89844L33.8516 9.01562C34.2265 9.39059 34.4374 9.89942 34.4375 10.4297V37.6875C34.4375 38.7921 33.5421 39.6875 32.4375 39.6875H9.5625C8.45793 39.6875 7.5625 38.7921 7.5625 37.6875V4.3125C7.5625 3.20793 8.45793 2.3125 9.5625 2.3125Z" fill="white" stroke="#BBBBBB" stroke-width="2"/>
<path d="M26.4194 2.03229V8.66132C26.4194 9.48975 27.091 10.1613 27.9194 10.1613H34.5485" stroke="#BBBBBB" stroke-width="2"/>
<path d="M15.2656 12.293C15.6562 11.9025 16.2892 11.9025 16.6797 12.293L20.0898 15.7031H28.6699C29.3711 15.7032 29.9395 16.2714 29.9395 16.9727C29.9394 17.6739 29.3711 18.2421 28.6699 18.2422H20.0898L17.2422 21.0898V23.3213H18.7812C19.3334 23.3214 19.7812 23.7691 19.7812 24.3213V29.9395C19.7812 30.4917 19.3334 30.9394 18.7812 30.9395H13.1631C12.6108 30.9395 12.1631 30.4917 12.1631 29.9395V24.3213C12.1631 23.8037 12.5564 23.3775 13.0605 23.3262L13.1631 23.3213H14.7021V21.0889L11.293 17.6797C10.927 17.3137 10.9037 16.7346 11.2236 16.3418L11.293 16.2656L15.2656 12.293ZM14.1631 28.9395H17.7812V25.3213H14.1631V28.9395ZM13.4141 16.9727L15.9541 19.5127C15.9601 19.5126 15.9666 19.5117 15.9727 19.5117C15.9785 19.5117 15.9844 19.5126 15.9902 19.5127L18.5127 16.9912C18.5126 16.985 18.5117 16.9789 18.5117 16.9727C18.5117 16.9665 18.5126 16.9602 18.5127 16.9541L15.9727 14.4141L13.4141 16.9727Z" fill="#BDB9E4"/>
<path d="M21 24C21 22.3431 22.3431 21 24 21H33.75C35.4069 21 36.75 22.3431 36.75 24V33.75C36.75 35.4069 35.4069 36.75 33.75 36.75H24C22.3431 36.75 21 35.4069 21 33.75V24Z" fill="#5951BB"/>
<path d="M33 24L29.7896 34H27.197L24 24H26.4582L28.0164 29.5462C28.0612 29.6863 28.1149 29.901 28.1776 30.1905C28.2403 30.4706 28.303 30.7647 28.3657 31.0728C28.4373 31.3716 28.4821 31.619 28.5 31.8151C28.5269 31.619 28.5672 31.3716 28.6209 31.0728C28.6836 30.774 28.7463 30.4846 28.809 30.2045C28.8716 29.915 28.9254 29.7003 28.9701 29.5602L30.5552 24H33Z" fill="white"/>
</svg>
