<svg width="42" height="42" viewBox="0 0 42 42" fill="none" xmlns="http://www.w3.org/2000/svg">
<path d="M9.5625 2.3125H26.3203C26.8506 2.31262 27.3594 2.52347 27.7344 2.89844L33.8516 9.01562C34.2265 9.39059 34.4374 9.89942 34.4375 10.4297V37.6875C34.4375 38.7921 33.5421 39.6875 32.4375 39.6875H9.5625C8.45793 39.6875 7.5625 38.7921 7.5625 37.6875V4.3125C7.5625 3.20793 8.45793 2.3125 9.5625 2.3125Z" fill="white" stroke="#BBBBBB" stroke-width="2"/>
<path d="M26.4194 2.03229V8.66132C26.4194 9.48975 27.091 10.1613 27.9194 10.1613H34.5485" stroke="#BBBBBB" stroke-width="2"/>
<path d="M21.1084 14.2168C22.1587 14.3658 23.1666 14.7488 24.0557 15.3428C25.2232 16.1229 26.1335 17.232 26.6709 18.5293C27.2083 19.8267 27.3492 21.2545 27.0752 22.6318C26.8012 24.0091 26.1248 25.2746 25.1318 26.2676C24.1389 27.2604 22.8733 27.936 21.4961 28.21C20.119 28.4838 18.6917 28.3439 17.3945 27.8066C16.0972 27.2693 14.9882 26.3589 14.208 25.1914C13.6138 24.3022 13.23 23.2937 13.0811 22.2432C13.0037 21.6965 13.4587 21.2472 14.0107 21.2471H19.1113C19.6634 21.2471 20.1111 20.7991 20.1113 20.2471V15.1465C20.1113 14.5942 20.5616 14.1393 21.1084 14.2168ZM16.749 13.0469C17.2934 12.954 17.7441 13.4106 17.7441 13.9629V17.8799C17.7441 18.4321 17.2964 18.8799 16.7441 18.8799H12.8281C12.2759 18.8799 11.8194 18.4291 11.9121 17.8848C11.9862 17.4504 12.1089 17.0242 12.2783 16.6152C12.5756 15.8976 13.0113 15.2456 13.5605 14.6963C14.11 14.1469 14.7626 13.7104 15.4805 13.4131C15.8893 13.2438 16.3149 13.121 16.749 13.0469Z" fill="#FAC299"/>
<path d="M21 24C21 22.3431 22.3431 21 24 21H33.75C35.4069 21 36.75 22.3431 36.75 24V33.75C36.75 35.4069 35.4069 36.75 33.75 36.75H24C22.3431 36.75 21 35.4069 21 33.75V24Z" fill="#F36700"/>
<path d="M28.7545 23C30.2013 23 31.268 23.3081 31.9545 23.9244C32.6515 24.5303 33 25.3777 33 26.4664C33 26.9594 32.9261 27.4318 32.7782 27.8838C32.6304 28.3254 32.3822 28.7208 32.0337 29.07C31.6957 29.4192 31.2469 29.6965 30.6871 29.902C30.138 30.1074 29.4568 30.2101 28.6436 30.2101H27.6931V34H25V23H28.7545ZM28.6594 25.1415H27.6931V28.0686H28.4059C28.7756 28.0686 29.0977 28.0173 29.3723 27.9146C29.6574 27.8119 29.8792 27.6475 30.0376 27.4216C30.196 27.1956 30.2752 26.9029 30.2752 26.5434C30.2752 26.0915 30.1432 25.7474 29.8792 25.5112C29.6152 25.2647 29.2086 25.1415 28.6594 25.1415Z" fill="white"/>
</svg>
