<svg width="24" height="24" viewBox="0 0 24 24" fill="none" xmlns="http://www.w3.org/2000/svg">
<path fill-rule="evenodd" clip-rule="evenodd" d="M10.7166 20.9468L2.05348 16.8936C1.31551 16.5398 1.31551 15.9929 2.05348 15.6713L5.06952 14.2559L10.6845 16.8936C11.4225 17.2475 12.6096 17.2475 13.3155 16.8936L18.9305 14.2559L21.9465 15.6713C22.6845 16.0251 22.6845 16.572 21.9465 16.8936L13.2834 20.9468C12.6096 21.2685 11.4225 21.2685 10.7166 20.9468Z" fill="#FF6F3D"/>
<path fill-rule="evenodd" clip-rule="evenodd" d="M10.6885 15.9299L2.05179 11.8721C1.31607 11.5178 1.31607 10.9703 2.05179 10.6483L4.99467 9.26343L10.6885 11.9365C11.4242 12.2907 12.6078 12.2907 13.3115 11.9365L19.0053 9.26343L21.9482 10.6483C22.6839 11.0025 22.6839 11.55 21.9482 11.8721L13.3115 15.9299C12.5758 16.2842 11.3922 16.2842 10.6885 15.9299Z" fill="#95C038"/>
<path fill-rule="evenodd" clip-rule="evenodd" d="M10.6885 10.967L2.05179 6.96755C1.31607 6.61839 1.31607 6.07878 2.05179 5.76136L10.6885 1.76187C11.4242 1.41271 12.6078 1.41271 13.3115 1.76187L21.9482 5.76136C22.6839 6.11052 22.6839 6.65013 21.9482 6.96755L13.3115 10.967C12.5758 11.2845 11.3922 11.2845 10.6885 10.967Z" fill="#5DC0E8"/>
</svg>
