<svg width="42" height="42" viewBox="0 0 42 42" fill="none" xmlns="http://www.w3.org/2000/svg">
<path d="M9.5625 2.3125H26.3203C26.8506 2.31262 27.3594 2.52347 27.7344 2.89844L33.8516 9.01562C34.2265 9.39059 34.4374 9.89942 34.4375 10.4297V37.6875C34.4375 38.7921 33.5421 39.6875 32.4375 39.6875H9.5625C8.45793 39.6875 7.5625 38.7921 7.5625 37.6875V4.3125C7.5625 3.20793 8.45793 2.3125 9.5625 2.3125Z" fill="white" stroke="#BBBBBB" stroke-width="2"/>
<path d="M26.4194 2.03223V8.66126C26.4194 9.48969 27.091 10.1613 27.9194 10.1613H34.5485" stroke="#BBBBBB" stroke-width="2"/>
<path d="M18.002 26.9094C18.7623 26.9097 19.3788 27.526 19.3789 28.2864C19.3789 29.0468 18.7623 29.6631 18.002 29.6633H12.7285C11.968 29.6632 11.3516 29.0469 11.3516 28.2864C11.3516 27.5259 11.9681 26.9095 12.7285 26.9094H18.002ZM18.002 21.4006C18.7623 21.4009 19.3789 22.0172 19.3789 22.7776C19.3789 23.538 18.7623 24.1543 18.002 24.1545H12.7285C11.968 24.1544 11.3516 23.5381 11.3516 22.7776C11.3516 22.0171 11.968 21.4008 12.7285 21.4006H18.002ZM18.002 15.8918C18.7623 15.8921 19.3788 16.5085 19.3789 17.2688C19.3789 18.0292 18.7623 18.6455 18.002 18.6458H12.7285C11.968 18.6456 11.3516 18.0293 11.3516 17.2688C11.3517 16.5084 11.9681 15.892 12.7285 15.8918H18.002ZM28.7041 15.8918C29.4646 15.8918 30.0809 16.5083 30.0811 17.2688C30.0811 18.0294 29.4647 18.6458 28.7041 18.6458H23.4316C22.671 18.6458 22.0547 18.0294 22.0547 17.2688C22.0548 16.5083 22.6711 15.8918 23.4316 15.8918H28.7041Z" fill="#B0D9AD"/>
<path d="M21 24C21 22.3431 22.3431 21 24 21H33.75C35.4069 21 36.75 22.3431 36.75 24V33.75C36.75 35.4069 35.4069 36.75 33.75 36.75H24C22.3431 36.75 21 35.4069 21 33.75V24Z" fill="#3AA133"/>
<path d="M34 34H31.1594L28.942 30.5266L26.7246 34H24L27.4348 28.8599L24.2029 24H26.942L29.0145 27.3613L31.0145 24H33.7536L30.5072 29.028L34 34Z" fill="white"/>
</svg>
